<?xml version="1.0" encoding="utf-8"?>
<!-- Generator: Adobe Illustrator 23.0.1, SVG Export Plug-In . SVG Version: 6.00 Build 0)  -->
<svg version="1.1" id="Layer_1" xmlns="http://www.w3.org/2000/svg" xmlns:xlink="http://www.w3.org/1999/xlink" x="0px" y="0px"
	 viewBox="0 0 136.3 30.9" style="enable-background:new 0 0 136.3 30.9;" xml:space="preserve">
<style type="text/css">
	.st0{fill:#FFFFFF;}
	.st1{display:none;fill:#A6A6A6;}
	.st2{display:none;fill:#FFFFFF;}
	.st3{fill-rule:evenodd;clip-rule:evenodd;fill:url(#XMLID_2_);}
	.st4{fill:none;}
	.st5{display:none;}
	.st6{display:inline;fill:#FFFFFF;}
	.st7{display:none;enable-background:new    ;}
	.st8{display:inline;fill:#2D2D2D;}
	.st9{enable-background:new    ;}
	.st10{fill:#2D2D2D;}
	.st11{display:inline;}
	.st12{fill-rule:evenodd;clip-rule:evenodd;fill:#F44336;}
	.st13{fill-rule:evenodd;clip-rule:evenodd;fill:#FEFEFE;}
	.st14{fill-rule:evenodd;clip-rule:evenodd;fill:#FC7E0F;}
	.st15{display:none;fill:#231F20;}
</style>
<g id="US">
	<path class="st0" d="M131.3,30.9H5c-2.8,0-5-2.3-5-5V5c0-2.8,2.3-5,5-5h126.3c2.8,0,5,2.3,5,5v20.8
		C136.3,28.6,134.1,30.9,131.3,30.9z"/>
	<path class="st1" d="M124.6-0.7H7c-0.3,0-0.6,0-0.9,0c-0.2,0-0.5,0-0.7,0c-0.5,0-1.1,0-1.6,0.1C3.2-0.5,2.7-0.3,2.2,0
		C1.7,0.2,1.3,0.6,0.9,1C0.5,1.3,0.2,1.7,0,2.2c-0.3,0.5-0.4,1-0.5,1.5s-0.1,1.1-0.1,1.6c0,0.2,0,0.5,0,0.7c0,0.3,0,0.6,0,0.9v16.9
		c0,0.3,0,0.6,0,0.9s0,0.5,0,0.7c0,0.5,0,1.1,0.1,1.6s0.3,1,0.5,1.5s0.6,0.9,1,1.3s0.8,0.7,1.3,1s1,0.4,1.5,0.5s1.1,0.1,1.6,0.1
		c0.2,0,0.5,0,0.7,0c0.3,0,0.6,0,0.9,0h117.6c0.3,0,0.6,0,0.9,0c0.2,0,0.5,0,0.7,0c0.5,0,1.1,0,1.6-0.1c0.5-0.1,1-0.3,1.5-0.5
		s0.9-0.6,1.3-1c0.4-0.4,0.7-0.8,1-1.3c0.2-0.5,0.4-1,0.5-1.5s0.1-1.1,0.1-1.6c0-0.3,0-0.5,0-0.7c0-0.3,0-0.6,0-0.9V7
		c0-0.3,0-0.6,0-0.9c0-0.2,0-0.5,0-0.7c0-0.5-0.1-1.1-0.1-1.6c-0.1-0.5-0.3-1-0.5-1.5s-0.6-0.9-1-1.3s-0.8-0.7-1.3-1
		c-0.5-0.2-1-0.4-1.5-0.5s-1.1-0.1-1.6-0.1c-0.2,0-0.5,0-0.7,0C125.2-0.7,124.9-0.7,124.6-0.7L124.6-0.7z"/>
	<path class="st2" d="M4.4,30.9c-0.2,0-0.4,0-0.5,0c-0.3,0-0.7,0-1.1-0.1s-0.7-0.2-1-0.4c-0.3-0.2-0.6-0.5-0.8-0.8s-0.4-0.7-0.6-1.1
		s-0.3-0.8-0.3-1.3C0,26.4,0,25.9,0,25.5c0-0.2,0-0.7,0-0.7V6.1c0,0,0-0.6,0-0.7c0-0.4,0-1,0.1-1.5S0.3,3,0.4,2.6
		C0.6,2.1,0.8,1.7,1,1.4s0.5-0.6,0.8-0.8s0.6-0.4,1-0.4C3.2,0,3.6,0,3.9,0h0.5h86.5h0.5c0.3,0,0.7,0,1.1,0.1s0.7,0.2,1,0.4
		s0.6,0.5,0.8,0.8c0.2,0.3,0.4,0.7,0.6,1.1s0.3,0.8,0.3,1.3c0.1,0.5,0.1,1,0.1,1.5c0,0.2,0,0.5,0,0.7c0,0.3,0,0.6,0,0.9v16.9
		c0,0.3,0,0.6,0,0.9s0,0.5,0,0.8c0,0.5,0,1-0.1,1.5s-0.2,0.9-0.3,1.3c-0.2,0.4-0.4,0.8-0.6,1.1c-0.2,0.3-0.5,0.6-0.8,0.8
		c-0.3,0.2-0.6,0.4-1,0.4c-0.4,0.1-0.8,0.1-1.1,0.1c-0.2,0-0.4,0-0.5,0h-0.6L4.4,30.9z"/>
	<g id="XMLID_632_">
		
			<linearGradient id="XMLID_2_" gradientUnits="userSpaceOnUse" x1="133.4389" y1="946.5253" x2="133.4389" y2="971.6884" gradientTransform="matrix(0.8068 0 0 0.8068 -92.1085 -758.3753)">
			<stop  offset="0" style="stop-color:#F452FF"/>
			<stop  offset="1" style="stop-color:#832BC1"/>
		</linearGradient>
		<path id="XMLID_662_" class="st3" d="M25.3,22.9c-0.2,0.5-0.7,1.2-1.3,1.7c-0.4,0.3-0.8,0.6-1.4,0.7c-0.7,0.2-1.5,0.3-2.5,0.3H11
			c-1,0-1.8-0.1-2.5-0.3c-0.6-0.2-1.1-0.5-1.4-0.7c-0.6-0.5-1.1-1.2-1.3-1.7c-0.4-1-0.4-2.2-0.4-2.9l0,0v-9.1l0,0
			c0-0.7,0-1.9,0.4-2.9C6,7.5,6.4,6.8,7.1,6.3C7.4,6,7.9,5.7,8.5,5.5C9.2,5.3,10,5.2,11,5.2l0,0h9.1l0,0c1,0,1.8,0.1,2.5,0.3
			c0.5,0.2,1,0.5,1.4,0.8c0.6,0.5,1.1,1.2,1.3,1.7c0.4,1,0.4,2.2,0.4,2.9V20C25.7,20.7,25.7,21.9,25.3,22.9z"/>
		<path id="XMLID_660_" class="st4" d="M25.3,22.9c-0.2,0.5-0.7,1.2-1.3,1.7c-0.4,0.3-0.8,0.6-1.4,0.7c-0.7,0.2-1.5,0.3-2.5,0.3H11
			c-1,0-1.8-0.1-2.5-0.3c-0.6-0.2-1.1-0.5-1.4-0.7c-0.6-0.5-1.1-1.2-1.3-1.7c-0.4-1-0.4-2.2-0.4-2.9l0,0v-9.1l0,0
			c0-0.7,0-1.9,0.4-2.9C6,7.5,6.4,6.8,7.1,6.3C7.4,6,7.9,5.7,8.5,5.5C9.2,5.3,10,5.2,11,5.2l0,0h9.1l0,0c1,0,1.8,0.1,2.5,0.3
			c0.5,0.2,1,0.5,1.4,0.8c0.6,0.5,1.1,1.2,1.3,1.7c0.4,1,0.4,2.2,0.4,2.9V20C25.7,20.7,25.7,21.9,25.3,22.9z"/>
		<g id="XMLID_648_">
			<g>
				<path class="st0" d="M17,16.9c-0.3-0.3-0.8-0.5-1.5-0.5c-0.6,0-1.2,0.2-1.5,0.5c-0.2,0.2-0.2,0.3-0.3,0.6c-0.1,0.5,0,0.9,0,1.5
					c0.1,0.6,0.2,1.5,0.3,2.3c0.1,0.6,0.2,0.9,0.2,1.2c0.1,0.4,0.5,0.7,1.2,0.7c0.7,0,1.1-0.3,1.2-0.7c0.1-0.2,0.1-0.6,0.2-1.2
					c0.1-0.8,0.2-1.7,0.3-2.3c0.1-0.7,0.1-1.1,0-1.5C17.2,17.3,17.1,17.1,17,16.9z M13.9,14.1c0,0.9,0.7,1.7,1.7,1.7
					c0.9,0,1.7-0.7,1.7-1.7c0-0.9-0.7-1.7-1.7-1.7C14.6,12.4,13.9,13.2,13.9,14.1z M15.5,7.5c-3.9,0-7.1,3.2-7.1,7
					c0,3.1,2,5.8,4.8,6.8c0.1,0,0.1,0,0.1-0.1c0-0.2-0.1-0.5-0.1-0.7c0-0.1-0.1-0.2-0.1-0.2c-2.2-1-3.8-3.2-3.7-5.8
					c0-3.4,2.8-6.1,6.2-6.2c3.5,0,6.3,2.8,6.3,6.2c0,2.6-1.5,4.7-3.7,5.7c-0.1,0-0.1,0.1-0.1,0.2c0,0.2-0.1,0.5-0.1,0.7
					c0,0.1,0.1,0.1,0.1,0.1c2.8-1,4.8-3.6,4.8-6.7C22.7,10.7,19.4,7.5,15.5,7.5z M15.4,10.8c2.2-0.1,4,1.7,4,3.9
					c0,1.1-0.5,2.1-1.2,2.8c-0.1,0.1-0.1,0.1-0.1,0.2c0,0.3,0,0.5,0,0.8c0,0.1,0.1,0.1,0.1,0.1c1.3-0.9,2.1-2.3,2.1-4
					c0-2.7-2.2-4.9-5-4.8c-2.5,0.1-4.6,2.2-4.6,4.7c0,1.7,0.8,3.1,2.1,4c0.1,0,0.2,0,0.1-0.1c0-0.3,0-0.5,0-0.8c0-0.1,0-0.2-0.1-0.2
					c-0.8-0.7-1.3-1.8-1.2-2.9C11.7,12.5,13.3,10.9,15.4,10.8z"/>
			</g>
		</g>
	</g>
	<g class="st5">
		<path class="st6" d="M36.6,21.7h-3.8l-0.9,2.7h-1.6l3.6-10h1.7l3.6,10h-1.6L36.6,21.7z M33.2,20.5h3l-1.5-4.4l0,0L33.2,20.5z"/>
		<path class="st6" d="M47,20.8c0,2.3-1.2,3.7-3,3.7c-1,0-1.9-0.5-2.3-1.3l0,0v3.6h-1.5v-9.7h1.5v1.2l0,0C42.1,17.5,43,17,44,17
			C45.7,17.1,47,18.5,47,20.8z M45.4,20.8c0-1.5-0.8-2.5-1.9-2.5c-1.1,0-1.9,1-1.9,2.5s0.8,2.5,1.9,2.5
			C44.7,23.3,45.4,22.3,45.4,20.8z"/>
		<path class="st6" d="M55,20.8c0,2.3-1.2,3.7-3,3.7c-1,0-1.9-0.5-2.3-1.3l0,0v3.6h-1.5v-9.7h1.5v1.2l0,0C50.1,17.5,51,17,52,17
			C53.8,17.1,55,18.5,55,20.8z M53.5,20.8c0-1.5-0.8-2.5-1.9-2.5c-1.1,0-1.9,1-1.9,2.5s0.8,2.5,1.9,2.5S53.5,22.3,53.5,20.8z"/>
		<path class="st6" d="M56.2,14.4h1.5v10h-1.5V14.4z"/>
		<path class="st6" d="M65.5,22.3c-0.2,1.3-1.5,2.2-3.1,2.2c-2.1,0-3.4-1.4-3.4-3.7s1.3-3.8,3.4-3.8c2,0,3.3,1.4,3.3,3.6v0.5h-5.2
			v0.1c0,1.2,0.8,2.1,2,2.1c0.8,0,1.5-0.4,1.7-1L65.5,22.3L65.5,22.3z M60.5,20.1h3.7c0-1.1-0.8-1.9-1.8-1.9
			C61.3,18.3,60.5,19,60.5,20.1z"/>
		<path class="st6" d="M73.6,14.4c1.9,0,3.3,1.3,3.3,3.3S75.5,21,73.6,21h-2.2v3.4h-1.6v-10C69.8,14.4,73.6,14.4,73.6,14.4z
			 M71.4,19.7h1.8c1.4,0,2.1-0.7,2.1-2s-0.8-2-2.1-2h-1.8C71.4,15.7,71.4,19.7,71.4,19.7z"/>
		<path class="st6" d="M77.4,20.8c0-2.3,1.4-3.7,3.5-3.7s3.5,1.4,3.5,3.7s-1.3,3.7-3.5,3.7C78.8,24.5,77.4,23.1,77.4,20.8z
			 M82.8,20.8c0-1.6-0.7-2.5-1.9-2.5c-1.2,0-1.9,0.9-1.9,2.5s0.7,2.5,1.9,2.5C82.1,23.3,82.8,22.4,82.8,20.8z"/>
		<path class="st6" d="M85.4,20.8c0-2.3,1.2-3.7,3.1-3.7c1,0,1.9,0.5,2.3,1.3l0,0v-3.9h1.5v10h-1.5v-1.2l0,0
			c-0.4,0.8-1.3,1.3-2.3,1.3C86.7,24.5,85.4,23.1,85.4,20.8z M86.9,20.8c0,1.5,0.8,2.5,1.9,2.5c1.2,0,1.9-1,1.9-2.5
			s-0.8-2.5-1.9-2.5C87.7,18.3,86.9,19.3,86.9,20.8z"/>
		<path class="st6" d="M98.7,19.7c-0.1-0.8-0.7-1.3-1.7-1.3c-1.2,0-1.9,1-1.9,2.5c0,1.6,0.8,2.5,1.9,2.5c0.9,0,1.5-0.5,1.7-1.3h1.4
			c-0.2,1.5-1.4,2.6-3.2,2.6c-2.1,0-3.4-1.4-3.4-3.7s1.4-3.7,3.4-3.7c1.9,0,3,1.2,3.2,2.6L98.7,19.7L98.7,19.7z"/>
		<path class="st6" d="M101,22.4c0-1.3,1-2,2.7-2.2l2-0.1v-0.6c0-0.8-0.5-1.3-1.4-1.3c-0.8,0-1.4,0.4-1.5,1h-1.4
			c0-1.3,1.3-2.3,3-2.3s2.9,1,2.9,2.4v5h-1.4v-1.2l0,0c-0.4,0.8-1.3,1.3-2.3,1.3C102,24.6,101,23.7,101,22.4z M105.8,21.7v-0.6
			l-1.8,0.1c-0.9,0.1-1.4,0.4-1.4,1.1c0,0.6,0.5,1.1,1.3,1.1C104.9,23.4,105.8,22.7,105.8,21.7z"/>
		<path class="st6" d="M111.4,17.1c1.6,0,2.8,0.9,2.8,2.2h-1.4c-0.1-0.6-0.6-1-1.4-1s-1.4,0.4-1.4,0.9c0,0.4,0.4,0.7,1.1,0.9
			l1.2,0.3c1.5,0.4,2,0.9,2,2c0,1.3-1.2,2.2-3,2.2c-1.7,0-2.9-0.9-3-2.2h1.5c0.1,0.7,0.7,1.1,1.6,1.1s1.5-0.4,1.5-1
			c0-0.5-0.3-0.7-1-0.9l-1.3-0.3c-1.3-0.3-2-1-2-2C108.6,17.9,109.7,17.1,111.4,17.1z"/>
		<path class="st6" d="M117.7,15.4v1.7h1.4v1.2h-1.4v4c0,0.6,0.3,0.9,0.9,0.9c0.2,0,0.4,0,0.5,0v1.2c-0.2,0-0.5,0.1-0.8,0.1
			c-1.5,0-2.1-0.6-2.1-2v-4.2h-1.1v-1.2h1.1v-1.7C116.2,15.4,117.7,15.4,117.7,15.4z"/>
		<path class="st6" d="M123.1,17.1c1.6,0,2.8,0.9,2.8,2.2h-1.4c-0.1-0.6-0.6-1-1.4-1s-1.4,0.4-1.4,0.9c0,0.4,0.4,0.7,1.1,0.9
			l1.2,0.3c1.5,0.4,2,0.9,2,2c0,1.3-1.2,2.2-3,2.2c-1.7,0-2.9-0.9-3-2.2h1.5c0.1,0.7,0.7,1.1,1.6,1.1s1.5-0.4,1.5-1
			c0-0.5-0.3-0.7-1-0.9l-1.3-0.3c-1.3-0.3-2-1-2-2C120.2,17.9,121.4,17.1,123.1,17.1z"/>
	</g>
	<g class="st5">
		<path class="st6" d="M34,11.1h-3V6.3h0.7v4.1H34V11.1z"/>
		<path class="st6" d="M34.8,6.4C34.8,6.2,35,6,35.3,6s0.5,0.2,0.5,0.4c0,0.2-0.2,0.4-0.5,0.4C35,6.9,34.8,6.7,34.8,6.4z M34.9,7.5
			h0.7v3.6h-0.7V7.5z"/>
		<path class="st6" d="M38.1,7.4c0.8,0,1.4,0.4,1.4,1h-0.7c0-0.2-0.3-0.4-0.7-0.4s-0.7,0.2-0.7,0.5c0,0.2,0.2,0.4,0.6,0.4L38.6,9
			c0.7,0.2,1,0.5,1,1c0,0.7-0.6,1.1-1.5,1.1s-1.4-0.4-1.5-1h0.7c0.1,0.3,0.4,0.5,0.8,0.5c0.4,0,0.8-0.2,0.8-0.5
			c0-0.2-0.2-0.4-0.5-0.4l-0.6-0.1c-0.7-0.2-1-0.5-1-1C36.7,7.9,37.3,7.4,38.1,7.4z"/>
		<path class="st6" d="M41.5,6.6v0.9h0.8v0.6h-0.8V10c0,0.4,0.2,0.5,0.5,0.5c0.1,0,0.2,0,0.3,0v0.6c-0.1,0-0.3,0-0.4,0
			c-0.8,0-1.1-0.3-1.1-1v-2h-0.6V7.5h0.6V6.6H41.5z"/>
		<path class="st6" d="M46.3,10.1c-0.2,0.7-0.7,1.1-1.6,1.1c-1,0-1.7-0.7-1.7-1.9s0.7-1.9,1.7-1.9s1.6,0.7,1.6,1.8v0.3h-2.6l0,0
			c0,0.6,0.4,1,1,1c0.4,0,0.7-0.2,0.9-0.4C45.6,10.1,46.3,10.1,46.3,10.1z M43.8,9h1.8c0-0.6-0.4-0.9-0.9-0.9
			C44.2,8,43.8,8.4,43.8,9z"/>
		<path class="st6" d="M47.3,7.5H48v0.6l0,0c0.2-0.4,0.5-0.6,1.1-0.6c0.8,0,1.3,0.5,1.3,1.4v2.4h-0.7V9c0-0.6-0.3-0.9-0.8-0.9
			C48.4,8.1,48,8.4,48,9v2.1h-0.7V7.5z"/>
		<path class="st6" d="M53.3,9.3c0-1.2,0.7-1.9,1.7-1.9c1.1,0,1.7,0.7,1.7,1.9S56,11.2,55,11.2C53.9,11.2,53.3,10.5,53.3,9.3z
			 M56,9.3c0-0.8-0.4-1.2-1-1.2s-1,0.5-1,1.2c0,0.8,0.4,1.3,1,1.3S56,10.1,56,9.3z"/>
		<path class="st6" d="M57.7,7.5h0.7v0.6h0.1c0.2-0.4,0.5-0.6,1.1-0.6c0.8,0,1.3,0.5,1.3,1.4v2.4H60V9c0-0.6-0.3-0.9-0.8-0.9
			S58.3,8.5,58.3,9v2.1h-0.7V7.5H57.7z"/>
	</g>
</g>
<g class="st7">
	<path class="st8" d="M38.8,10.6c0.5,0.2,1,0.6,1.3,1.1s0.4,1,0.4,1.6c0,0.6-0.1,1.2-0.4,1.6s-0.7,0.8-1.3,1.1
		c-0.5,0.2-1.2,0.4-1.9,0.4h-1.7v2.3h-1.9v-8.4h3.6C37.6,10.2,38.2,10.4,38.8,10.6z M38.1,14.4c0.3-0.3,0.5-0.6,0.5-1.1
		c0-0.5-0.2-0.8-0.5-1.1c-0.3-0.3-0.7-0.4-1.3-0.4h-1.6v2.9h1.6C37.3,14.7,37.8,14.6,38.1,14.4z"/>
	<path class="st8" d="M43,18.3c-0.5-0.3-1-0.7-1.3-1.2s-0.5-1.1-0.5-1.7c0-0.6,0.2-1.2,0.5-1.7s0.7-0.9,1.3-1.2s1.1-0.4,1.8-0.4
		c0.7,0,1.3,0.1,1.8,0.4c0.5,0.3,1,0.7,1.3,1.2c0.3,0.5,0.5,1.1,0.5,1.7c0,0.6-0.2,1.2-0.5,1.7c-0.3,0.5-0.7,0.9-1.3,1.2
		c-0.5,0.3-1.1,0.4-1.8,0.4C44.1,18.7,43.5,18.6,43,18.3z M46,16.7c0.3-0.3,0.5-0.8,0.5-1.3s-0.2-1-0.5-1.3
		c-0.3-0.3-0.7-0.5-1.2-0.5s-0.9,0.2-1.2,0.5c-0.3,0.3-0.5,0.8-0.5,1.3s0.2,1,0.5,1.3s0.7,0.5,1.2,0.5S45.7,17,46,16.7z"/>
	<path class="st8" d="M50.9,18.3c-0.5-0.3-1-0.7-1.3-1.2c-0.3-0.5-0.5-1.1-0.5-1.7c0-0.6,0.2-1.2,0.5-1.7c0.3-0.5,0.7-0.9,1.3-1.2
		s1.2-0.4,1.9-0.4c0.7,0,1.3,0.1,1.8,0.4c0.5,0.3,0.9,0.7,1.1,1.2l-1.5,0.8c-0.3-0.6-0.8-0.9-1.5-0.9c-0.5,0-0.9,0.2-1.2,0.5
		c-0.3,0.3-0.5,0.8-0.5,1.3c0,0.6,0.2,1,0.5,1.3c0.3,0.3,0.7,0.5,1.2,0.5c0.6,0,1.1-0.3,1.5-0.9l1.5,0.8c-0.2,0.5-0.6,0.9-1.1,1.2
		c-0.5,0.3-1.1,0.4-1.8,0.4C52,18.7,51.4,18.6,50.9,18.3z"/>
	<path class="st8" d="M59.4,16.1L58.5,17v1.6h-1.9V9.7h1.9v5l2.7-2.6h2.2l-2.7,2.7l2.9,3.7h-2.3L59.4,16.1z"/>
	<path class="st8" d="M70.6,15.9h-4.9c0.1,0.4,0.3,0.7,0.6,0.9c0.3,0.2,0.7,0.3,1.2,0.3c0.3,0,0.6,0,0.9-0.1
		c0.3-0.1,0.5-0.3,0.7-0.5l1,1.1c-0.6,0.7-1.5,1-2.7,1c-0.7,0-1.4-0.1-1.9-0.4c-0.6-0.3-1-0.7-1.3-1.2s-0.5-1.1-0.5-1.7
		c0-0.6,0.2-1.2,0.5-1.7c0.3-0.5,0.7-0.9,1.2-1.2s1.1-0.4,1.8-0.4c0.6,0,1.2,0.1,1.7,0.4c0.5,0.3,0.9,0.7,1.2,1.2
		c0.3,0.5,0.4,1.1,0.4,1.8C70.6,15.5,70.6,15.6,70.6,15.9z M66.2,13.9c-0.3,0.2-0.5,0.6-0.5,1h3.2c-0.1-0.4-0.2-0.7-0.5-1
		s-0.6-0.4-1.1-0.4C66.8,13.5,66.5,13.6,66.2,13.9z"/>
	<path class="st8" d="M76,18.3c-0.2,0.1-0.4,0.2-0.7,0.3c-0.3,0.1-0.6,0.1-0.8,0.1c-0.8,0-1.4-0.2-1.8-0.6c-0.4-0.4-0.6-1-0.6-1.7
		v-2.7h-1v-1.4h1v-1.6h1.9v1.6h1.6v1.4h-1.6v2.6c0,0.3,0.1,0.5,0.2,0.6c0.1,0.1,0.3,0.2,0.6,0.2c0.3,0,0.5-0.1,0.8-0.2L76,18.3z"/>
	<path class="st8" d="M82.3,18.2c-0.7-0.4-1.2-0.9-1.6-1.5c-0.4-0.7-0.6-1.4-0.6-2.2s0.2-1.6,0.6-2.2c0.4-0.7,0.9-1.2,1.6-1.5
		c0.7-0.4,1.5-0.6,2.3-0.6c0.7,0,1.4,0.1,2,0.4s1.1,0.6,1.5,1.1l-1.2,1.2c-0.6-0.7-1.3-1-2.1-1c-0.5,0-1,0.1-1.4,0.3
		c-0.4,0.2-0.7,0.5-1,1c-0.2,0.4-0.3,0.9-0.3,1.4c0,0.5,0.1,1,0.3,1.4c0.2,0.4,0.5,0.7,1,1c0.4,0.2,0.9,0.3,1.4,0.3
		c0.8,0,1.5-0.3,2.1-1l1.2,1.2c-0.4,0.5-0.9,0.9-1.5,1.1c-0.6,0.3-1.3,0.4-2,0.4C83.8,18.8,83,18.6,82.3,18.2z"/>
	<path class="st8" d="M94.1,12.8c0.5,0.5,0.8,1.2,0.8,2.2v3.7h-1.8v-0.8c-0.4,0.6-1,0.9-2,0.9c-0.5,0-0.9-0.1-1.3-0.3
		s-0.6-0.4-0.8-0.7c-0.2-0.3-0.3-0.6-0.3-1c0-0.6,0.2-1.1,0.7-1.4c0.5-0.3,1.1-0.5,2.1-0.5H93c0-0.4-0.1-0.7-0.4-0.9
		c-0.2-0.2-0.6-0.3-1.1-0.3c-0.3,0-0.7,0.1-1,0.2c-0.3,0.1-0.6,0.3-0.8,0.4L89,12.9c0.4-0.2,0.8-0.4,1.3-0.6c0.5-0.1,1-0.2,1.5-0.2
		C92.8,12.1,93.6,12.3,94.1,12.8z M92.5,17.3c0.2-0.1,0.4-0.4,0.5-0.7v-0.7h-1.3c-0.8,0-1.2,0.3-1.2,0.8c0,0.2,0.1,0.4,0.3,0.6
		c0.2,0.1,0.4,0.2,0.8,0.2C92,17.5,92.3,17.4,92.5,17.3z"/>
	<path class="st8" d="M97.2,18.5c-0.5-0.1-0.9-0.3-1.2-0.5l0.6-1.3c0.3,0.2,0.6,0.3,1,0.5s0.8,0.2,1.2,0.2c0.8,0,1.2-0.2,1.2-0.6
		c0-0.2-0.1-0.3-0.3-0.4c-0.2-0.1-0.5-0.1-1-0.2c-0.5-0.1-1-0.2-1.3-0.3c-0.3-0.1-0.6-0.3-0.9-0.6s-0.4-0.6-0.4-1.1
		c0-0.4,0.1-0.8,0.4-1.1c0.2-0.3,0.6-0.6,1-0.7s1-0.3,1.6-0.3c0.5,0,0.9,0,1.4,0.1c0.5,0.1,0.8,0.2,1.1,0.4L101,14
		c-0.6-0.3-1.2-0.5-1.9-0.5c-0.4,0-0.7,0.1-0.9,0.2s-0.3,0.3-0.3,0.4c0,0.2,0.1,0.3,0.3,0.4c0.2,0.1,0.6,0.2,1,0.2
		c0.5,0.1,1,0.2,1.3,0.3c0.3,0.1,0.6,0.3,0.9,0.5c0.2,0.3,0.4,0.6,0.4,1.1c0,0.4-0.1,0.8-0.4,1.1c-0.2,0.3-0.6,0.6-1.1,0.7
		s-1,0.3-1.6,0.3C98.2,18.7,97.7,18.7,97.2,18.5z"/>
	<path class="st8" d="M107.1,18.3c-0.2,0.1-0.4,0.2-0.7,0.3c-0.3,0.1-0.5,0.1-0.8,0.1c-0.8,0-1.4-0.2-1.8-0.6
		c-0.4-0.4-0.6-1-0.6-1.7v-2.7h-1v-1.4h1v-1.6h1.9v1.6h1.6v1.4h-1.6v2.6c0,0.3,0.1,0.5,0.2,0.6c0.1,0.1,0.3,0.2,0.6,0.2
		c0.3,0,0.5-0.1,0.8-0.2L107.1,18.3z"/>
	<path class="st8" d="M108.8,18.5c-0.5-0.1-0.9-0.3-1.2-0.5l0.6-1.3c0.3,0.2,0.6,0.3,1,0.5s0.8,0.2,1.2,0.2c0.8,0,1.2-0.2,1.2-0.6
		c0-0.2-0.1-0.3-0.3-0.4c-0.2-0.1-0.5-0.1-1-0.2c-0.5-0.1-1-0.2-1.3-0.3c-0.3-0.1-0.6-0.3-0.9-0.6s-0.4-0.6-0.4-1.1
		c0-0.4,0.1-0.8,0.4-1.1c0.2-0.3,0.6-0.6,1-0.7s1-0.3,1.6-0.3c0.5,0,0.9,0,1.4,0.1c0.5,0.1,0.8,0.2,1.1,0.4l-0.6,1.3
		c-0.6-0.3-1.2-0.5-1.9-0.5c-0.4,0-0.7,0.1-0.9,0.2s-0.3,0.3-0.3,0.4c0,0.2,0.1,0.3,0.3,0.4c0.2,0.1,0.6,0.2,1,0.2
		c0.5,0.1,1,0.2,1.3,0.3c0.3,0.1,0.6,0.3,0.9,0.5c0.2,0.3,0.4,0.6,0.4,1.1c0,0.4-0.1,0.8-0.4,1.1c-0.2,0.3-0.6,0.6-1.1,0.7
		s-1,0.3-1.6,0.3C109.8,18.7,109.3,18.7,108.8,18.5z"/>
</g>
<g class="st7">
	<path class="st8" d="M34.9,18.2c-0.7-0.4-1.2-0.9-1.6-1.6c-0.4-0.7-0.6-1.4-0.6-2.2c0-0.8,0.2-1.6,0.6-2.2s0.9-1.2,1.6-1.6
		c0.7-0.4,1.5-0.6,2.4-0.6s1.7,0.2,2.4,0.6c0.7,0.4,1.2,0.9,1.6,1.6c0.4,0.7,0.6,1.4,0.6,2.2c0,0.8-0.2,1.6-0.6,2.2
		c-0.4,0.7-0.9,1.2-1.6,1.6s-1.5,0.6-2.4,0.6S35.6,18.6,34.9,18.2z M38.6,16.8c0.4-0.2,0.7-0.5,0.9-1c0.2-0.4,0.3-0.9,0.3-1.4
		c0-0.5-0.1-1-0.3-1.4s-0.5-0.7-0.9-1c-0.4-0.2-0.8-0.3-1.3-0.3s-0.9,0.1-1.3,0.3c-0.4,0.2-0.7,0.5-0.9,1s-0.3,0.9-0.3,1.4
		c0,0.5,0.1,1,0.3,1.4c0.2,0.4,0.5,0.7,0.9,1c0.4,0.2,0.8,0.3,1.3,0.3S38.2,17,38.6,16.8z"/>
	<path class="st8" d="M49.6,12.2l-2.7,6.5H45l-2.7-6.5h1.9l1.8,4.4l1.8-4.4H49.6z"/>
	<path class="st8" d="M56.5,15.9h-4.9c0.1,0.4,0.3,0.7,0.6,0.9c0.3,0.2,0.7,0.3,1.2,0.3c0.3,0,0.6,0,0.9-0.1
		c0.3-0.1,0.5-0.3,0.7-0.5l1,1.1c-0.6,0.7-1.5,1-2.7,1c-0.7,0-1.4-0.1-1.9-0.4c-0.6-0.3-1-0.7-1.3-1.2s-0.5-1.1-0.5-1.7
		c0-0.6,0.2-1.2,0.5-1.7c0.3-0.5,0.7-0.9,1.2-1.2s1.1-0.4,1.8-0.4c0.6,0,1.2,0.1,1.7,0.4c0.5,0.3,0.9,0.7,1.2,1.2
		c0.3,0.5,0.4,1.1,0.4,1.8C56.5,15.5,56.5,15.6,56.5,15.9z M52.1,13.9c-0.3,0.2-0.5,0.6-0.5,1h3.2c-0.1-0.4-0.2-0.7-0.5-1
		s-0.6-0.4-1.1-0.4C52.7,13.5,52.4,13.6,52.1,13.9z"/>
	<path class="st8" d="M60.5,12.3c0.4-0.2,0.8-0.2,1.3-0.2v1.7c-0.2,0-0.3,0-0.4,0c-0.5,0-1,0.1-1.3,0.4c-0.3,0.3-0.5,0.8-0.5,1.4v3
		h-1.9v-6.5h1.8V13C59.8,12.7,60.1,12.5,60.5,12.3z"/>
	<path class="st8" d="M64.1,18.3c-0.5-0.3-1-0.7-1.3-1.2c-0.3-0.5-0.5-1.1-0.5-1.7c0-0.6,0.2-1.2,0.5-1.7c0.3-0.5,0.7-0.9,1.3-1.2
		s1.2-0.4,1.9-0.4c0.7,0,1.3,0.1,1.8,0.4c0.5,0.3,0.9,0.7,1.1,1.2l-1.5,0.8c-0.3-0.6-0.8-0.9-1.5-0.9c-0.5,0-0.9,0.2-1.2,0.5
		c-0.3,0.3-0.5,0.8-0.5,1.3c0,0.6,0.2,1,0.5,1.3c0.3,0.3,0.7,0.5,1.2,0.5c0.6,0,1.1-0.3,1.5-0.9l1.5,0.8c-0.2,0.5-0.6,0.9-1.1,1.2
		c-0.5,0.3-1.1,0.4-1.8,0.4C65.3,18.7,64.6,18.6,64.1,18.3z"/>
	<path class="st8" d="M74.8,12.8c0.5,0.5,0.8,1.2,0.8,2.2v3.7h-1.8v-0.8c-0.4,0.6-1,0.9-2,0.9c-0.5,0-0.9-0.1-1.3-0.3
		s-0.6-0.4-0.8-0.7c-0.2-0.3-0.3-0.6-0.3-1c0-0.6,0.2-1.1,0.7-1.4c0.5-0.3,1.1-0.5,2.1-0.5h1.5c0-0.4-0.1-0.7-0.4-0.9
		c-0.2-0.2-0.6-0.3-1.1-0.3c-0.3,0-0.7,0.1-1,0.2c-0.3,0.1-0.6,0.3-0.8,0.4l-0.7-1.3c0.4-0.2,0.8-0.4,1.3-0.6c0.5-0.1,1-0.2,1.5-0.2
		C73.5,12.1,74.3,12.3,74.8,12.8z M73.2,17.3c0.2-0.1,0.4-0.4,0.5-0.7v-0.7h-1.3c-0.8,0-1.2,0.3-1.2,0.8c0,0.2,0.1,0.4,0.3,0.6
		c0.2,0.1,0.4,0.2,0.8,0.2C72.7,17.5,73,17.4,73.2,17.3z"/>
	<path class="st8" d="M77.9,18.5c-0.5-0.1-0.9-0.3-1.2-0.5l0.6-1.3c0.3,0.2,0.6,0.3,1,0.5c0.4,0.1,0.8,0.2,1.2,0.2
		c0.8,0,1.2-0.2,1.2-0.6c0-0.2-0.1-0.3-0.3-0.4s-0.5-0.1-1-0.2c-0.5-0.1-1-0.2-1.3-0.3c-0.3-0.1-0.6-0.3-0.9-0.6s-0.4-0.6-0.4-1.1
		c0-0.4,0.1-0.8,0.4-1.1c0.2-0.3,0.6-0.6,1-0.7c0.5-0.2,1-0.3,1.6-0.3c0.5,0,0.9,0,1.4,0.1c0.5,0.1,0.8,0.2,1.1,0.4L81.7,14
		c-0.6-0.3-1.2-0.5-1.9-0.5c-0.4,0-0.7,0.1-0.9,0.2c-0.2,0.1-0.3,0.3-0.3,0.4c0,0.2,0.1,0.3,0.3,0.4s0.6,0.2,1,0.2
		c0.5,0.1,1,0.2,1.3,0.3c0.3,0.1,0.6,0.3,0.9,0.5c0.2,0.3,0.4,0.6,0.4,1.1c0,0.4-0.1,0.8-0.4,1.1c-0.2,0.3-0.6,0.6-1,0.7
		s-1,0.3-1.6,0.3C79,18.7,78.4,18.7,77.9,18.5z"/>
	<path class="st8" d="M87.9,18.3c-0.2,0.1-0.4,0.2-0.7,0.3c-0.3,0.1-0.6,0.1-0.8,0.1c-0.8,0-1.4-0.2-1.8-0.6c-0.4-0.4-0.6-1-0.6-1.7
		v-2.7h-1v-1.4h1v-1.6h1.9v1.6h1.6v1.4h-1.6v2.6c0,0.3,0.1,0.5,0.2,0.6c0.1,0.1,0.3,0.2,0.6,0.2c0.3,0,0.5-0.1,0.8-0.2L87.9,18.3z"
		/>
</g>
<g class="st9">
	<path class="st10" d="M38.7,16.8h-3.9l-0.7,1.8h-2l3.7-8.4h1.9l3.8,8.4h-2L38.7,16.8z M38.1,15.4l-1.3-3.2l-1.3,3.2H38.1z"/>
	<path class="st10" d="M47.7,12.5c0.5,0.3,0.9,0.7,1.2,1.2c0.3,0.5,0.4,1.1,0.4,1.7c0,0.7-0.1,1.2-0.4,1.7c-0.3,0.5-0.7,0.9-1.2,1.2
		c-0.5,0.3-1,0.4-1.6,0.4c-0.8,0-1.5-0.3-1.9-0.8v3h-1.9v-8.8h1.8v0.7c0.5-0.6,1.1-0.8,2-0.8C46.7,12.1,47.2,12.2,47.7,12.5z
		 M46.9,16.7c0.3-0.3,0.5-0.8,0.5-1.3s-0.2-1-0.5-1.3c-0.3-0.3-0.7-0.5-1.2-0.5s-0.9,0.2-1.2,0.5c-0.3,0.3-0.5,0.8-0.5,1.3
		s0.2,1,0.5,1.3s0.7,0.5,1.2,0.5S46.6,17,46.9,16.7z"/>
	<path class="st10" d="M56,12.5c0.5,0.3,0.9,0.7,1.2,1.2c0.3,0.5,0.4,1.1,0.4,1.7c0,0.7-0.1,1.2-0.4,1.7c-0.3,0.5-0.7,0.9-1.2,1.2
		c-0.5,0.3-1,0.4-1.6,0.4c-0.8,0-1.5-0.3-1.9-0.8v3h-1.9v-8.8h1.8v0.7c0.5-0.6,1.1-0.8,2-0.8C55,12.1,55.5,12.2,56,12.5z M55.2,16.7
		c0.3-0.3,0.5-0.8,0.5-1.3s-0.2-1-0.5-1.3c-0.3-0.3-0.7-0.5-1.2-0.5s-0.9,0.2-1.2,0.5c-0.3,0.3-0.5,0.8-0.5,1.3s0.2,1,0.5,1.3
		s0.7,0.5,1.2,0.5S54.9,17,55.2,16.7z"/>
	<path class="st10" d="M58.8,9.7h1.9v8.9h-1.9V9.7z"/>
	<path class="st10" d="M68.7,15.9h-4.9c0.1,0.4,0.3,0.7,0.6,0.9c0.3,0.2,0.7,0.3,1.2,0.3c0.3,0,0.6,0,0.9-0.1
		c0.3-0.1,0.5-0.3,0.7-0.5l1,1.1c-0.6,0.7-1.5,1-2.7,1c-0.7,0-1.4-0.1-1.9-0.4c-0.6-0.3-1-0.7-1.3-1.2S62,16,62,15.4
		c0-0.6,0.2-1.2,0.5-1.7c0.3-0.5,0.7-0.9,1.2-1.2s1.1-0.4,1.8-0.4c0.6,0,1.2,0.1,1.7,0.4c0.5,0.3,0.9,0.7,1.2,1.2
		c0.3,0.5,0.4,1.1,0.4,1.8C68.8,15.5,68.7,15.6,68.7,15.9z M64.3,13.9c-0.3,0.2-0.5,0.6-0.5,1H67c-0.1-0.4-0.2-0.7-0.5-1
		s-0.6-0.4-1.1-0.4C65,13.5,64.6,13.6,64.3,13.9z"/>
	<path class="st10" d="M79.1,10.6c0.5,0.2,1,0.6,1.3,1.1s0.4,1,0.4,1.6c0,0.6-0.1,1.2-0.4,1.6s-0.7,0.8-1.3,1.1
		c-0.5,0.2-1.2,0.4-1.9,0.4h-1.7v2.3h-1.9v-8.4h3.6C77.9,10.2,78.6,10.4,79.1,10.6z M78.4,14.4c0.3-0.3,0.5-0.6,0.5-1.1
		c0-0.5-0.2-0.8-0.5-1.1c-0.3-0.3-0.7-0.4-1.3-0.4h-1.6v2.9h1.6C77.6,14.7,78.1,14.6,78.4,14.4z"/>
	<path class="st10" d="M83.3,18.3c-0.5-0.3-1-0.7-1.3-1.2c-0.3-0.5-0.5-1.1-0.5-1.7c0-0.6,0.2-1.2,0.5-1.7c0.3-0.5,0.7-0.9,1.3-1.2
		s1.2-0.4,1.8-0.4s1.3,0.1,1.8,0.4s1,0.7,1.3,1.2s0.5,1.1,0.5,1.7c0,0.6-0.2,1.2-0.5,1.7S87.5,18,87,18.3s-1.1,0.4-1.8,0.4
		S83.8,18.6,83.3,18.3z M86.3,16.7c0.3-0.3,0.5-0.8,0.5-1.3s-0.2-1-0.5-1.3c-0.3-0.3-0.7-0.5-1.2-0.5c-0.5,0-0.9,0.2-1.2,0.5
		c-0.3,0.3-0.5,0.8-0.5,1.3s0.2,1,0.5,1.3c0.3,0.3,0.7,0.5,1.2,0.5C85.6,17.2,86,17,86.3,16.7z"/>
	<path class="st10" d="M96.5,9.7v8.9h-1.8v-0.7c-0.5,0.6-1.1,0.8-2,0.8c-0.6,0-1.2-0.1-1.7-0.4c-0.5-0.3-0.9-0.7-1.2-1.2
		c-0.3-0.5-0.4-1.1-0.4-1.8c0-0.7,0.1-1.2,0.4-1.8c0.3-0.5,0.7-0.9,1.2-1.2c0.5-0.3,1-0.4,1.7-0.4c0.8,0,1.5,0.3,1.9,0.8V9.7H96.5z
		 M94.2,16.7c0.3-0.3,0.5-0.8,0.5-1.3s-0.2-1-0.5-1.3c-0.3-0.3-0.7-0.5-1.2-0.5c-0.5,0-0.9,0.2-1.2,0.5c-0.3,0.3-0.5,0.8-0.5,1.3
		s0.2,1,0.5,1.3c0.3,0.3,0.7,0.5,1.2,0.5C93.5,17.2,93.9,17,94.2,16.7z"/>
	<path class="st10" d="M99.5,18.3c-0.5-0.3-1-0.7-1.3-1.2s-0.5-1.1-0.5-1.7c0-0.6,0.2-1.2,0.5-1.7s0.7-0.9,1.3-1.2s1.2-0.4,1.9-0.4
		c0.7,0,1.3,0.1,1.8,0.4s0.9,0.7,1.1,1.2l-1.5,0.8c-0.3-0.6-0.8-0.9-1.5-0.9c-0.5,0-0.9,0.2-1.2,0.5c-0.3,0.3-0.5,0.8-0.5,1.3
		c0,0.6,0.2,1,0.5,1.3s0.7,0.5,1.2,0.5c0.6,0,1.1-0.3,1.5-0.9l1.5,0.8c-0.2,0.5-0.6,0.9-1.1,1.2s-1.1,0.4-1.8,0.4
		C100.7,18.7,100,18.6,99.5,18.3z"/>
	<path class="st10" d="M110.2,12.8c0.5,0.5,0.8,1.2,0.8,2.2v3.7h-1.8v-0.8c-0.4,0.6-1,0.9-2,0.9c-0.5,0-0.9-0.1-1.3-0.3
		s-0.6-0.4-0.8-0.7c-0.2-0.3-0.3-0.6-0.3-1c0-0.6,0.2-1.1,0.7-1.4c0.5-0.3,1.1-0.5,2.1-0.5h1.5c0-0.4-0.1-0.7-0.4-0.9
		c-0.2-0.2-0.6-0.3-1.1-0.3c-0.3,0-0.7,0.1-1,0.2c-0.3,0.1-0.6,0.3-0.8,0.4l-0.7-1.3c0.4-0.2,0.8-0.4,1.3-0.6c0.5-0.1,1-0.2,1.5-0.2
		C108.9,12.1,109.7,12.3,110.2,12.8z M108.6,17.3c0.2-0.1,0.4-0.4,0.5-0.7v-0.7h-1.3c-0.8,0-1.2,0.3-1.2,0.8c0,0.2,0.1,0.4,0.3,0.6
		c0.2,0.1,0.4,0.2,0.8,0.2C108.1,17.5,108.4,17.4,108.6,17.3z"/>
	<path class="st10" d="M113.3,18.5c-0.5-0.1-0.9-0.3-1.2-0.5l0.6-1.3c0.3,0.2,0.6,0.3,1,0.5s0.8,0.2,1.2,0.2c0.8,0,1.2-0.2,1.2-0.6
		c0-0.2-0.1-0.3-0.3-0.4c-0.2-0.1-0.5-0.1-1-0.2c-0.5-0.1-1-0.2-1.3-0.3c-0.3-0.1-0.6-0.3-0.9-0.6s-0.4-0.6-0.4-1.1
		c0-0.4,0.1-0.8,0.4-1.1c0.2-0.3,0.6-0.6,1-0.7s1-0.3,1.6-0.3c0.5,0,0.9,0,1.4,0.1c0.5,0.1,0.8,0.2,1.1,0.4l-0.6,1.3
		c-0.6-0.3-1.2-0.5-1.9-0.5c-0.4,0-0.7,0.1-0.9,0.2s-0.3,0.3-0.3,0.4c0,0.2,0.1,0.3,0.3,0.4c0.2,0.1,0.6,0.2,1,0.2
		c0.5,0.1,1,0.2,1.3,0.3c0.3,0.1,0.6,0.3,0.9,0.5c0.2,0.3,0.4,0.6,0.4,1.1c0,0.4-0.1,0.8-0.4,1.1c-0.2,0.3-0.6,0.6-1.1,0.7
		s-1,0.3-1.6,0.3C114.4,18.7,113.8,18.7,113.3,18.5z"/>
	<path class="st10" d="M123.3,18.3c-0.2,0.1-0.4,0.2-0.7,0.3c-0.3,0.1-0.5,0.1-0.8,0.1c-0.8,0-1.4-0.2-1.8-0.6
		c-0.4-0.4-0.6-1-0.6-1.7v-2.7h-1v-1.4h1v-1.6h1.9v1.6h1.6v1.4h-1.6v2.6c0,0.3,0.1,0.5,0.2,0.6c0.1,0.1,0.3,0.2,0.6,0.2
		c0.3,0,0.5-0.1,0.8-0.2L123.3,18.3z"/>
	<path class="st10" d="M124.9,18.5c-0.5-0.1-0.9-0.3-1.2-0.5l0.6-1.3c0.3,0.2,0.6,0.3,1,0.5s0.8,0.2,1.2,0.2c0.8,0,1.2-0.2,1.2-0.6
		c0-0.2-0.1-0.3-0.3-0.4c-0.2-0.1-0.5-0.1-1-0.2c-0.5-0.1-1-0.2-1.3-0.3c-0.3-0.1-0.6-0.3-0.9-0.6s-0.4-0.6-0.4-1.1
		c0-0.4,0.1-0.8,0.4-1.1c0.2-0.3,0.6-0.6,1-0.7s1-0.3,1.6-0.3c0.5,0,0.9,0,1.4,0.1c0.5,0.1,0.8,0.2,1.1,0.4l-0.6,1.3
		c-0.6-0.3-1.2-0.5-1.9-0.5c-0.4,0-0.7,0.1-0.9,0.2s-0.3,0.3-0.3,0.4c0,0.2,0.1,0.3,0.3,0.4c0.2,0.1,0.6,0.2,1,0.2
		c0.5,0.1,1,0.2,1.3,0.3c0.3,0.1,0.6,0.3,0.9,0.5c0.2,0.3,0.4,0.6,0.4,1.1c0,0.4-0.1,0.8-0.4,1.1c-0.2,0.3-0.6,0.6-1.1,0.7
		s-1,0.3-1.6,0.3C125.9,18.7,125.4,18.7,124.9,18.5z"/>
</g>
<g id="Group-13" transform="translate(14.000000, 16.000000)" class="st5">
	<g id="Group-6" class="st11">
		<g id="Clip-5">
		</g>
		<polygon id="Fill-4" class="st12" points="-9.5,-11.5 12.4,-11.5 12.4,10.4 -9.5,10.4 		"/>
	</g>
	<g id="Group-9" transform="translate(7.550562, 7.550562)" class="st11">
		<g id="Clip-8">
		</g>
		<polygon id="Fill-7" class="st13" points="-13.8,-15.8 1.6,-15.8 1.6,-0.4 -13.8,-0.4 		"/>
	</g>
</g>
<g class="st5">
	<g id="overcastCanvas-group_1_" class="st11">
		<path id="overcastCanvas-bezier_1_" class="st14" d="M15.5,25.4c-5.6,0-10.2-4.5-10.2-10.2S9.8,5.1,15.5,5.1s10.2,4.5,10.2,10.2
			S21.1,25.4,15.5,25.4z M15.5,21.4l0.8-0.8l-0.8-2.9l-0.8,2.9L15.5,21.4z M14.5,21.3l-0.4,1.4l0.9-0.9L14.5,21.3z M16.5,21.3
			L16,21.8l0.9,0.9L16.5,21.3z M17.2,24l-1.7-1.7L13.8,24c0.6,0.1,1.1,0.2,1.7,0.2C16.1,24.1,16.6,24.1,17.2,24z M15.5,6.3
			c-4.9,0-8.9,4-8.9,8.9c0,3.9,2.5,7.2,6,8.4l1.9-7.1c-0.4-0.3-0.7-0.8-0.7-1.4c0-0.9,0.8-1.7,1.7-1.7s1.7,0.8,1.7,1.7
			c0,0.6-0.3,1-0.7,1.4l1.9,7.1c3.5-1.2,6-4.5,6-8.4C24.4,10.3,20.4,6.3,15.5,6.3z M21.3,19.7c-0.2,0.3-0.6,0.3-0.9,0.1
			c-0.3-0.2-0.3-0.6-0.1-0.8c0,0,1.1-1.5,1.1-3.7s-1.1-3.7-1.1-3.7c-0.2-0.3-0.2-0.6,0.1-0.8c0.3-0.2,0.7-0.1,0.9,0.1
			c0.1,0.1,1.4,1.8,1.4,4.4S21.4,19.6,21.3,19.7z M18.2,18c-0.3-0.3-0.2-0.7,0-1c0,0,0.6-0.7,0.6-1.8s-0.6-1.7-0.6-1.8
			c-0.3-0.3-0.3-0.7,0-1s0.6-0.3,0.9,0c0,0,1.1,1.1,1.1,2.8s-1,2.8-1.1,2.8C18.8,18.3,18.4,18.3,18.2,18z M12.8,18
			c-0.3,0.3-0.6,0.3-0.9,0c0-0.1-1.1-1.1-1.1-2.8s1-2.7,1.1-2.8c0.3-0.3,0.7-0.3,0.9,0c0.3,0.3,0.2,0.7,0,1c0,0-0.6,0.7-0.6,1.8
			s0.6,1.8,0.6,1.8C13,17.3,13,17.7,12.8,18z M10.6,19.8c-0.3,0.2-0.7,0.1-0.9-0.1c-0.1-0.1-1.4-1.8-1.4-4.4s1.3-4.3,1.4-4.4
			c0.2-0.3,0.6-0.3,0.9-0.1c0.3,0.2,0.3,0.6,0.1,0.8c0,0-1.1,1.5-1.1,3.7s1.1,3.7,1.1,3.7C10.9,19.2,10.8,19.6,10.6,19.8z"/>
	</g>
</g>
<rect x="-1.9" y="-1.2" class="st15" width="0.1" height="0.1"/>
</svg>
