<svg width="242" height="99" viewBox="0 0 242 99" fill="none" xmlns="http://www.w3.org/2000/svg">
<path d="M53.4005 41.0729L22.0813 51.8227L53.4005 62.5725V80.1444L0.685 61.0221V42.6234L53.4005 23.5011V41.0729ZM86.9024 34.561H99.2027V51.616H87.6259V88H64.2657V51.616H56.5135V34.561H64.2657V34.2509C64.2657 26.8776 66.4708 21.0548 70.881 16.7825C75.2912 12.4412 81.493 10.2705 89.4865 10.2705C92.105 10.2705 94.6547 10.5117 97.1354 10.9941C99.6161 11.4765 101.683 12.1655 103.337 13.0614L97.7556 29.2895C95.8261 28.3936 94.0689 27.9457 92.484 27.9457C90.7613 27.9457 89.3831 28.497 88.3495 29.5995C87.3847 30.6332 86.9024 32.2525 86.9024 34.4576V34.561ZM113.984 31.4601H137.344V88H113.984V31.4601ZM125.664 26.9121C121.46 26.9121 118.049 25.8095 115.431 23.6045C112.881 21.3305 111.606 18.4707 111.606 15.0253C111.606 11.5798 112.881 8.75454 115.431 6.54945C118.049 4.27545 121.46 3.13845 125.664 3.13845C129.936 3.13845 133.347 4.20655 135.897 6.34273C138.446 8.47891 139.721 11.2353 139.721 14.6118C139.721 18.1951 138.446 21.1582 135.897 23.5011C133.347 25.7751 129.936 26.9121 125.664 26.9121ZM169.907 0.967815H190.579L156.469 98.3364H135.797L169.907 0.967815ZM241.272 42.6234V61.0221L188.556 80.1444V62.5725L219.876 51.8227L188.556 41.0729V23.5011L241.272 42.6234Z" fill="#151515"/>
</svg>
